<?xml version="1.0" encoding="UTF-8"?>
<svg version="1.1" xmlns="http://www.w3.org/2000/svg" width="8343" height="1193">
<path d="M0 0 C399.62714397 0 399.62714397 0 430.25 3.8125 C430.94059509 3.89681274 431.63119019 3.98112549 432.3427124 4.06799316 C503.54896928 12.80157604 574.77863838 35.71597602 628.62109375 84.83984375 C630.78271952 86.80269933 632.97526262 88.7196626 635.1875 90.625 C641.68110756 96.31340022 647.27528833 102.38978377 652.68359375 109.125 C654.17495378 110.9759966 655.68661746 112.81090849 657.22265625 114.625 C667.9289471 127.3139373 676.30666325 141.33174609 684 156 C684.57016846 157.07314453 684.57016846 157.07314453 685.15185547 158.16796875 C719.12771074 222.90634461 723.04779675 308.52278219 702.05224609 377.73876953 C692.46500942 407.45252996 677.68327571 434.79402987 658 459 C656.86691406 460.43859375 656.86691406 460.43859375 655.7109375 461.90625 C642.74244128 477.88014376 627.65653945 492.91501394 611 505 C610.03707031 505.74636719 609.07414063 506.49273438 608.08203125 507.26171875 C579.53767476 529.33448025 546.14108317 545.61963894 512 557 C513.65987628 562.01303672 516.55889842 566.03388918 519.51953125 570.34765625 C520.08109421 571.17470566 520.64265717 572.00175507 521.22123718 572.85386658 C522.44033828 574.64891374 523.66143117 576.44260943 524.88427734 578.23510742 C528.20093741 583.09839436 531.50113275 587.97281729 534.80078125 592.84765625 C535.48355133 593.85599518 536.16632141 594.86433411 536.86978149 595.90322876 C543.83732159 606.209354 550.67551102 616.59883999 557.5 627 C567.06520076 641.56991484 576.72910618 656.06723574 586.5 670.5 C599.55351885 689.78218029 612.3887448 709.20297075 625.17018127 728.66627502 C628.75839108 734.12549734 632.37061512 739.56807873 636 745 C640.19157159 751.27331838 644.35464026 757.56457494 648.49609375 763.87109375 C660.72393946 782.48742291 673.01388897 801.05567233 685.5 819.5 C696.77126906 836.14998834 707.89638127 852.8912409 718.93359375 869.69726562 C719.49482941 870.55173279 720.05606506 871.40619995 720.63430786 872.28656006 C721.73954699 873.9694696 722.84443299 875.6526111 723.94894409 877.33599854 C726.93221884 881.87693682 729.93426952 886.40450697 732.95751953 890.91894531 C733.60745377 891.88982086 734.257388 892.86069641 734.92701721 893.86099243 C736.18673794 895.74048042 737.44849974 897.61860233 738.71250916 899.49520874 C739.55489891 900.75175766 739.55489891 900.75175766 740.41430664 902.03369141 C740.91450821 902.77696686 741.41470978 903.52024231 741.93006897 904.28604126 C743 906 743 906 743 907 C713.99744485 907.34245927 684.99508753 907.60778135 655.9909134 907.76597994 C652.56392592 907.78473972 649.13694244 907.80415463 645.70996094 907.82397461 C645.02773326 907.82790927 644.34550558 907.83184392 643.64260434 907.83589781 C632.60714155 907.90110445 621.57285522 908.01933381 610.53808953 908.15729194 C599.20855553 908.29775004 587.87989148 908.37979638 576.54943168 908.41132742 C570.18750364 908.43087294 563.8282401 908.47674358 557.4671669 908.58595085 C551.4761244 908.68796963 545.488836 908.719139 539.49700737 908.69661522 C537.30147177 908.70073358 535.1058075 908.7304682 532.91102409 908.78808212 C516.76792552 909.19096822 516.76792552 909.19096822 512.15574408 905.54016805 C508.99204705 902.02675389 506.84086668 898.12704045 504.87876391 893.84966862 C503.58906627 891.13504501 501.95429826 888.67122156 500.3046875 886.1640625 C499.15954206 884.31889623 498.01634344 882.47252044 496.875 880.625 C489.66342059 869.02026586 482.30911476 857.51097778 474.93017578 846.01220703 C471.9014155 841.28556342 468.88728258 836.54965632 465.875 831.8125 C465.30515381 830.91644043 464.73530762 830.02038086 464.14819336 829.09716797 C463.00462933 827.29872305 461.86115569 825.50022065 460.71777344 823.70166016 C457.81326436 819.13353943 454.90650771 814.56684923 452 810 C450.8333228 808.16667337 449.66665613 806.33334004 448.5 804.5 C447.63375 803.13875 447.63375 803.13875 446.75 801.75 C440.33333333 791.66666667 433.91666667 781.58333333 427.5 771.5 C426.92233887 770.5922583 426.34467773 769.6845166 425.74951172 768.74926758 C424.58443052 766.91840247 423.41939136 765.0875106 422.25439453 763.2565918 C419.31381679 758.63527287 416.37247908 754.0144408 413.4296875 749.39453125 C407.44643027 739.99976771 401.47672124 730.5968409 395.53417969 721.17626953 C389.97501424 712.3678361 384.37816293 703.58344039 378.78222656 694.79833984 C375.85345187 690.19976238 372.92682309 685.59981973 370 681 C368.83334387 679.16665996 367.6666772 677.33332663 366.5 675.5 C345.5 642.5 345.5 642.5 343.74926758 639.7487793 C342.58512661 637.91946133 341.42090164 636.09019682 340.2565918 634.26098633 C337.30058334 629.61665739 334.34613891 624.97134596 331.39453125 620.32421875 C330.79447266 619.37998047 330.19441406 618.43574219 329.57617188 617.46289062 C328.46102191 615.70804224 327.34637329 613.95287508 326.23242188 612.19726562 C320.87211802 603.76451208 315.42898867 595.39025522 310 587 C271.06 586.67 232.12 586.34 192 586 C192 691.93 192 797.86 192 907 C128.64 907 65.28 907 0 907 C0 607.69 0 308.38 0 0 Z M192 160 C192 248.44 192 336.88 192 428 C218.60625 428.04125 245.2125 428.0825 272.625 428.125 C280.96604004 428.14320801 289.30708008 428.16141602 297.90087891 428.18017578 C305.50456156 428.18687257 305.50456156 428.18687257 313.10824585 428.19088745 C316.44445564 428.19271967 319.78059908 428.2000865 323.11679077 428.21115112 C363.00523374 428.3892339 363.00523374 428.3892339 402.5625 423.75 C404.40823608 423.42793579 404.40823608 423.42793579 406.29125977 423.09936523 C433.59399042 418.13539408 460.36065379 408.81307251 482 391 C483.16208984 390.08347656 483.16208984 390.08347656 484.34765625 389.1484375 C507.80295379 369.70577464 518.33879933 339.81856664 521.3125 310.375 C524.22577185 276.73752752 518.87076261 239.51413634 497.109375 212.5 C496.41328125 211.675 495.7171875 210.85 495 210 C494.42765625 209.278125 493.8553125 208.55625 493.265625 207.8125 C466.40576721 175.06905431 419.76643557 165.02526835 379.88092613 160.98091412 C362.79246984 159.37542288 345.64617925 159.61596326 328.50016785 159.69615936 C324.15204318 159.71359591 319.80397057 159.71406735 315.45581055 159.71618652 C302.84550911 159.73175826 290.23525118 159.77364103 277.625 159.8125 C249.36875 159.874375 221.1125 159.93625 192 160 Z " fill="#000000" transform="translate(0,30)"/>
<path d="M0 0 C1.06092865 -0.00570007 2.1218573 -0.01140015 3.2149353 -0.01727295 C5.45545472 -0.02667163 7.69598765 -0.03323637 9.93652344 -0.03710938 C13.27825849 -0.0467093 16.61934904 -0.07773866 19.9609375 -0.109375 C87.38498997 -0.441438 148.03331124 24.84702314 195.7734375 72.078125 C201.50577769 77.81046519 206.71901352 83.81208046 211.7109375 90.203125 C215.6709375 95.153125 215.6709375 95.153125 219.7109375 100.203125 C220.0409375 71.163125 220.3709375 42.123125 220.7109375 12.203125 C273.8409375 12.203125 326.9709375 12.203125 381.7109375 12.203125 C381.75119906 88.92556025 381.75119906 88.92556025 381.76223755 112.67236328 C381.76263222 113.51927141 381.76302688 114.36617955 381.76343351 115.23875156 C381.77669021 143.7631709 381.78718882 172.28759056 381.79562378 200.81201172 C381.79589989 201.74335434 381.79617601 202.67469696 381.79646049 203.63426208 C381.8024471 223.87764204 381.80798735 244.12102209 381.81306816 264.36440229 C381.81556271 274.29257681 381.81815583 284.2207513 381.82080078 294.14892578 C381.8210623 295.13686827 381.82132382 296.12481076 381.82159326 297.1426909 C381.83010721 329.13163962 381.84512329 361.12058126 381.86353194 393.1095257 C381.88242379 425.99808326 381.89471457 458.8866369 381.89876748 491.7751998 C381.89934374 496.42660009 381.89999501 501.07800036 381.90069199 505.72940063 C381.90082683 506.64481125 381.90096168 507.56022187 381.90110061 508.5033722 C381.90345876 523.20487886 381.91272059 537.90637335 381.92460157 552.60787506 C381.93641395 567.4084737 381.94086401 582.20906034 381.93794025 597.00966352 C381.93642575 605.78957217 381.94041473 614.56943672 381.95253259 623.34933736 C381.9600932 629.23240819 381.96022259 635.11545051 381.95460113 640.9985234 C381.9516133 644.33902476 381.95271913 647.67937702 381.96070386 651.0198797 C382.00661445 671.42923487 381.21818034 691.76346937 378.0234375 711.953125 C377.85755127 713.00838379 377.69166504 714.06364258 377.52075195 715.15087891 C367.18191183 777.43998996 336.28892969 837.17958792 285.7109375 876.203125 C284.73125 876.98816406 283.7515625 877.77320313 282.7421875 878.58203125 C231.62183075 919.27457319 166.10787717 937.82569809 101.7109375 942.203125 C100.51428467 942.28852539 99.31763184 942.37392578 98.0847168 942.46191406 C86.52456156 943.24393434 74.98290639 943.44470578 63.3984375 943.453125 C62.42482269 943.45413208 61.45120789 943.45513916 60.4480896 943.45617676 C6.60288667 943.41890719 -46.75386116 934.97293233 -96.2890625 913.203125 C-97.02882324 912.88408203 -97.76858398 912.56503906 -98.53076172 912.23632812 C-120.55658714 902.68052402 -140.86515824 889.53799142 -159.2890625 874.203125 C-159.80404297 873.77837891 -160.31902344 873.35363281 -160.84960938 872.91601562 C-208.0547734 833.8629686 -236.51005878 780.52675264 -245.6640625 720.140625 C-245.81963623 719.12097656 -245.97520996 718.10132813 -246.13549805 717.05078125 C-247.47841094 707.39470778 -247.77118977 698.04270678 -248.2890625 688.203125 C-192.1890625 688.203125 -136.0890625 688.203125 -78.2890625 688.203125 C-76.9690625 696.123125 -75.6490625 704.043125 -74.2890625 712.203125 C-66.14510642 743.10839423 -51.69152209 769.73811424 -23.48095703 786.26220703 C18.6988275 810.0155567 73.98178832 810.2373973 119.72387695 797.64672852 C135.2645301 793.05530632 150.40167731 785.78345094 162.7109375 775.203125 C163.56558594 774.50832031 164.42023437 773.81351563 165.30078125 773.09765625 C192.10019899 750.42757869 202.74138914 713.97476798 205.7109375 680.203125 C206.1840787 671.03588977 206.06373793 661.85560224 206.00390625 652.6796875 C205.99829439 650.11038463 205.99403184 647.5410785 205.99104309 644.97177124 C205.98086854 638.96586105 205.95737404 632.96015449 205.92699462 626.95432508 C205.89310027 620.10028151 205.87687793 613.24622848 205.86190832 606.39212155 C205.83081014 592.32902975 205.77827225 578.2660868 205.7109375 564.203125 C205.23403976 564.95703522 204.75714203 565.71094543 204.26579285 566.48770142 C203.32441216 567.97226334 203.32441216 567.97226334 202.36401367 569.48681641 C201.74274094 570.46760162 201.1214682 571.44838684 200.48136902 572.45889282 C194.04875777 582.42967034 186.22840082 591.25392518 178.04492188 599.80615234 C176.90735077 600.99743746 175.78415526 602.20242264 174.6640625 603.41015625 C138.53054047 641.31947103 82.82082221 660.35602191 31.5 662.11328125 C30.24960938 662.14292969 28.99921875 662.17257812 27.7109375 662.203125 C26.52242187 662.24308594 25.33390625 662.28304687 24.109375 662.32421875 C-45.41848651 663.56840153 -111.5217835 639.17061075 -162.43359375 591.8359375 C-164.95210149 589.51381135 -167.51213991 587.25773964 -170.1015625 585.015625 C-173.50299283 582.00432288 -176.50632864 578.83703494 -179.43359375 575.3671875 C-181.52361133 572.929567 -183.71729658 570.607427 -185.9140625 568.265625 C-244.29246873 504.12910587 -268.5910701 416.76759657 -268.4765625 331.515625 C-268.47595825 330.67307159 -268.475354 329.83051819 -268.47473145 328.96243286 C-268.31621362 246.71004772 -248.30631841 162.91052119 -195.2890625 98.203125 C-194.84369141 97.65624023 -194.39832031 97.10935547 -193.93945312 96.54589844 C-186.96004518 88.04064751 -179.41577249 80.13127984 -171.6640625 72.328125 C-170.80578857 71.46058594 -169.94751465 70.59304688 -169.06323242 69.69921875 C-163.11597543 63.78085119 -156.88048831 58.39124804 -150.2890625 53.203125 C-149.32323242 52.44032227 -149.32323242 52.44032227 -148.33789062 51.66210938 C-106.57689419 19.20264372 -52.99092733 0.22778796 0 0 Z M-34.2890625 182.203125 C-34.7948584 182.63206055 -35.3006543 183.06099609 -35.82177734 183.50292969 C-72.38873595 214.75337452 -88.3145402 261.37614282 -92.05029297 308.19921875 C-93.39004302 328.62928997 -93.40003831 349.94933647 -90.2890625 370.203125 C-90.13840332 371.1921582 -89.98774414 372.18119141 -89.83251953 373.20019531 C-83.09583317 415.58760709 -65.23903331 456.75818089 -30.37890625 483.4296875 C-5.18071102 501.60236361 22.59424097 509.4256601 53.5234375 509.453125 C54.20835266 509.45379974 54.89326782 509.45447449 55.59893799 509.45516968 C95.94545885 509.39228069 130.23067344 495.10463317 159.11328125 466.9140625 C194.08356899 431.70389787 205.92889358 380.64889987 205.9609375 332.578125 C205.96161224 331.66783539 205.96228699 330.75754578 205.96298218 329.81967163 C205.91487966 288.86914074 198.11223506 244.63417158 172.7109375 211.203125 C172.06640625 210.35105469 171.421875 209.49898437 170.7578125 208.62109375 C147.04911183 178.23848718 116.07650385 158.5545452 77.7109375 153.203125 C77.05939697 153.1110376 76.40785645 153.0189502 75.73657227 152.92407227 C36.59929654 147.93383422 -3.96251408 156.20894064 -34.2890625 182.203125 Z " fill="#000000" transform="translate(3546.2890625,249.796875)"/>
<path d="M0 0 C0.70632568 0.09945923 1.41265137 0.19891846 2.14038086 0.3013916 C42.79688754 6.059695 81.78949067 16.41729476 119 34 C119.88333008 34.41217773 120.76666016 34.82435547 121.67675781 35.24902344 C151.63820141 49.31718519 178.69225306 68.63192047 203 91 C204.72829011 92.54264927 206.45746434 94.08430857 208.1875 95.625 C214.94200284 101.71460647 221.04994522 108.13068415 227 115 C227.54503174 115.62769287 228.09006348 116.25538574 228.65161133 116.90209961 C268.880431 163.59155861 290.95439991 221.20071043 298.8125 281.875 C298.9364917 282.81843262 299.0604834 283.76186523 299.18823242 284.73388672 C300.01571805 291.6232991 300 297.9473475 300 305 C235.98 305 171.96 305 106 305 C104 293 104 293 103.140625 287.5 C96.32098144 244.68479988 76.98575103 205.41344516 41.98046875 178.6953125 C0.74441574 149.30636227 -49.493889 142.15832203 -98.828125 150.05859375 C-124.07963316 154.44871904 -147.07688768 163.72518292 -167 180 C-167.84949219 180.68449219 -168.69898437 181.36898437 -169.57421875 182.07421875 C-188.45267303 198.10756846 -202.79242162 223.11593627 -205 248 C-206.40251619 271.7287496 -203.75247882 294.1383922 -187.890625 312.9296875 C-187.26671875 313.61289062 -186.6428125 314.29609375 -186 315 C-185.27296875 315.80695313 -184.5459375 316.61390625 -183.796875 317.4453125 C-168.15778153 333.94203367 -146.69767521 344.12594219 -125.4375 351.3125 C-124.34832275 351.68431396 -123.25914551 352.05612793 -122.13696289 352.43920898 C-113.70331671 355.15383543 -105.13977608 357.21933633 -96.51635742 359.23144531 C-95.86814883 359.38274938 -95.21994025 359.53405344 -94.55208898 359.68994248 C-79.51665363 363.18870135 -64.40340929 366.27191263 -49.26785803 369.30224872 C-45.45239519 370.0674289 -41.63813812 370.83857544 -37.82376099 371.60914612 C-28.9873244 373.39333722 -20.14957837 375.17098372 -11.31162262 376.94763184 C2.21263534 379.66660168 15.73610709 382.38945609 29.2578125 385.12109375 C30.01894663 385.27483263 30.78008076 385.42857151 31.56427956 385.58696914 C49.29078747 389.16868594 67.01378986 392.75905181 84.6640625 396.703125 C85.34758915 396.85582289 86.0311158 397.00852077 86.73535538 397.16584587 C124.69170214 405.68586835 161.55627525 417.71318934 196 436 C196.64984863 436.34353516 197.29969727 436.68707031 197.96923828 437.04101562 C218.55540656 448.01896742 237.13848549 461.91453846 254 478 C254.85207031 478.79921875 255.70414063 479.5984375 256.58203125 480.421875 C263.46839108 487.05880763 269.34732545 494.30923025 275 502 C275.41749512 502.56783203 275.83499023 503.13566406 276.26513672 503.72070312 C297.28852129 532.77483714 308.80768041 566.61189048 313 602 C313.09571289 602.76940918 313.19142578 603.53881836 313.29003906 604.33154297 C314.32444695 613.85439835 314.24376675 623.43258885 314.25 633 C314.25101212 634.39761063 314.25101212 634.39761063 314.25204468 635.82345581 C314.2341862 651.40022513 313.51106555 666.5974798 311 682 C310.83371094 683.03253906 310.66742187 684.06507813 310.49609375 685.12890625 C306.62413398 708.27462129 299.86358814 730.70464957 290 752 C289.64776367 752.77939941 289.29552734 753.55879883 288.93261719 754.36181641 C276.84850014 780.89199503 259.12548117 804.08217705 239 825 C238.50113281 825.52078125 238.00226563 826.0415625 237.48828125 826.578125 C230.72026741 833.60711623 223.66825976 839.94823768 216 846 C214.83298275 846.95501527 213.66770997 847.91216501 212.50390625 848.87109375 C204.01627329 855.829947 195.27964971 862.14111288 186 868 C185.42378906 868.36657715 184.84757812 868.7331543 184.25390625 869.11083984 C120.65529615 909.29261476 43.23163388 926.97807078 -31.51171875 927.203125 C-32.96196523 927.21014664 -34.4122114 927.21723346 -35.86245728 927.22438049 C-40.47080938 927.24377902 -45.07911119 927.24881427 -49.6875 927.25 C-50.47210476 927.25044186 -51.25670952 927.25088371 -52.06509018 927.25133896 C-75.49857622 927.25826241 -98.72725772 927.03957197 -122 924 C-123.37887924 923.82644544 -124.75778618 923.65311079 -126.13671875 923.47998047 C-215.95168923 912.01890356 -308.98989872 874.24500045 -365.94921875 800.734375 C-366.62597656 799.83203125 -367.30273438 798.9296875 -368 798 C-368.92207937 796.81685202 -369.84534896 795.63463108 -370.76953125 794.453125 C-404.7751267 750.56655409 -424.2914176 698.07461323 -432.3125 643.4375 C-432.47202148 642.35742676 -432.63154297 641.27735352 -432.79589844 640.16455078 C-434.08764017 630.73027368 -434.46666063 621.60010873 -435 612 C-370.65 612 -306.3 612 -240 612 C-239.01 620.91 -238.02 629.82 -237 639 C-227.85207195 681.89361817 -208.65597604 720.14738154 -171.22998047 745.18408203 C-136.32319419 767.79426733 -96.06042077 775.47431702 -55 775.3125 C-54.01276947 775.31034485 -53.02553894 775.3081897 -52.00839233 775.30596924 C-4.43413746 775.13970466 43.4476305 765.30344757 80 733 C80.70640625 732.37738281 81.4128125 731.75476563 82.140625 731.11328125 C100.4491947 713.92196679 108.89585104 689.00183333 110.1875 664.43359375 C110.5926813 641.76876463 104.54328282 621.46492446 90 604 C89.525625 603.36835937 89.05125 602.73671875 88.5625 602.0859375 C65.65927908 573.09904852 21.83256809 562.19181406 -12.390625 555.34765625 C-14.44097365 554.92928761 -16.49120139 554.51032612 -18.5413208 554.09083557 C-49.71992966 547.74350738 -80.98427506 541.8003609 -112.23339844 535.81079102 C-167.19544011 525.27186467 -167.19544011 525.27186467 -187.90234375 520.0625 C-188.58536812 519.89136122 -189.26839249 519.72022243 -189.97211456 519.54389763 C-213.37482977 513.62007148 -236.17102985 505.28350736 -258 495 C-258.86512207 494.59426758 -259.73024414 494.18853516 -260.62158203 493.77050781 C-286.586394 481.47779976 -310.29965623 465.62481772 -331.5234375 446.25390625 C-333.20252205 444.7257804 -334.89580823 443.21314142 -336.6015625 441.71484375 C-337.88160156 440.58755859 -337.88160156 440.58755859 -339.1875 439.4375 C-339.94417969 438.77621094 -340.70085937 438.11492187 -341.48046875 437.43359375 C-353.5087862 425.81554449 -363.791078 411.51825874 -372 397 C-372.35513672 396.38253906 -372.71027344 395.76507813 -373.07617188 395.12890625 C-393.81712331 358.82325469 -401.21954529 317.26914931 -401.25 275.875 C-401.25067474 275.04362518 -401.25134949 274.21225037 -401.25204468 273.35568237 C-401.20361792 235.51990284 -393.89471336 199.38434073 -378 165 C-377.66210449 164.26765137 -377.32420898 163.53530273 -376.97607422 162.78076172 C-360.99002742 128.57046226 -334.86656151 97.01064897 -305 74 C-303.698949 72.94986109 -302.39961057 71.8975985 -301.1015625 70.84375 C-259.4050202 37.2882983 -208.45872171 15.09746959 -156 5 C-154.84000488 4.77618652 -153.68000977 4.55237305 -152.48486328 4.32177734 C-143.68612147 2.66455694 -134.86395232 1.25955994 -126 0 C-124.8567627 -0.16661133 -123.71352539 -0.33322266 -122.53564453 -0.50488281 C-82.96580517 -5.98352189 -39.52158612 -5.641631 0 0 Z " fill="#4D5BA5" transform="translate(4479,22)"/>
<path d="M0 0 C3.57281628 0.01611356 7.14450203 0.00000536 10.71728516 -0.01904297 C32.59297088 -0.03997199 54.36655001 1.77443995 75.82275391 6.14111328 C77.10657959 6.39715332 78.39040527 6.65319336 79.71313477 6.91699219 C91.72052079 9.36254393 103.43743599 12.56029558 115.07275391 16.39111328 C115.97719238 16.68711426 116.88163086 16.98311523 117.81347656 17.28808594 C167.70484772 33.88864823 209.88757527 63.24888779 246.88525391 100.07861328 C247.59069336 100.77937988 248.29613281 101.48014648 249.02294922 102.20214844 C263.31581252 116.53885488 275.78386043 132.61658736 287.07275391 149.39111328 C287.55566895 150.10541504 288.03858398 150.8197168 288.53613281 151.55566406 C339.60882071 227.79806393 354.4518156 324.52740639 337.67822266 428.81298828 C331.77100346 457.74850768 322.39488942 486.01872256 309.07275391 512.39111328 C308.64752441 513.24431152 308.22229492 514.09750977 307.78417969 514.9765625 C297.17947114 536.14928511 284.28441015 556.21840944 269.07275391 574.39111328 C268.23228516 575.40431641 267.39181641 576.41751953 266.52587891 577.46142578 C252.91366778 593.78145545 238.4273143 610.24870336 221.64306641 623.37548828 C218.89711666 625.52884705 216.27626919 627.79807083 213.63525391 630.07861328 C194.42036751 646.04974953 172.7034963 658.88566789 150.07275391 669.39111328 C149.31655762 669.74238281 148.56036133 670.09365234 147.78125 670.45556641 C121.17008792 682.65571106 93.18782987 690.9006955 64.32275391 695.64111328 C63.40284668 695.79233643 62.48293945 695.94355957 61.53515625 696.09936523 C42.21633322 699.05953443 23.03198003 699.76473768 3.51025391 699.70361328 C1.65232712 699.70038055 1.65232712 699.70038055 -0.24313354 699.69708252 C-17.97527044 699.64754381 -35.40648321 699.37513916 -52.92724609 696.39111328 C-54.13880371 696.19243652 -55.35036133 695.99375977 -56.59863281 695.7890625 C-116.33438965 685.77182404 -171.37170412 661.62035393 -216.92724609 621.39111328 C-217.77158203 620.64603516 -218.61591797 619.90095703 -219.48583984 619.13330078 C-221.98310267 616.90374453 -224.45653777 614.65004661 -226.92724609 612.39111328 C-227.9908504 611.43256045 -229.05466409 610.47423992 -230.11865234 609.51611328 C-236.80598658 603.46070682 -242.99744775 597.20266603 -248.92724609 590.39111328 C-250.38490499 588.80715902 -251.84325228 587.22383802 -253.30224609 585.64111328 C-258.8373137 579.47401373 -263.92675895 572.99429977 -268.92724609 566.39111328 C-269.44335449 565.71016602 -269.95946289 565.02921875 -270.49121094 564.32763672 C-309.19189821 512.8916548 -331.83747992 450.48397742 -336.92724609 386.39111328 C-337.01337158 385.3658252 -337.09949707 384.34053711 -337.18823242 383.28417969 C-338.02114924 372.35909973 -338.12872709 361.4682521 -338.11474609 350.51611328 C-338.11380951 349.56513763 -338.11287292 348.61416199 -338.11190796 347.6343689 C-338.03868341 313.25598203 -333.96507966 279.60417592 -324.92724609 246.39111328 C-324.67249512 245.4454248 -324.41774414 244.49973633 -324.15527344 243.52539062 C-310.28989898 192.94067967 -283.35579837 146.48739751 -247.59912109 108.25048828 C-245.79378151 106.3184582 -244.0133553 104.38030011 -242.25537109 102.40673828 C-235.56050199 94.91431179 -228.43480812 88.06425968 -220.92724609 81.39111328 C-220.10981934 80.65658936 -220.10981934 80.65658936 -219.27587891 79.90722656 C-159.24410879 26.13393691 -80.01302391 -0.42659028 0 0 Z M-105.92724609 203.39111328 C-106.64388428 204.10170898 -106.64388428 204.10170898 -107.375 204.82666016 C-132.28123679 229.87894939 -146.79585091 264.10955216 -153.17724609 298.45361328 C-153.32838867 299.26620605 -153.47953125 300.07879883 -153.63525391 300.91601562 C-156.41400701 317.03968346 -157.30622691 333.11572395 -157.23974609 349.45361328 C-157.23792328 350.38999634 -157.23610046 351.32637939 -157.23422241 352.2911377 C-157.18458723 367.49858248 -156.54733255 382.37719267 -153.92724609 397.39111328 C-153.76095703 398.35243164 -153.59466797 399.31375 -153.42333984 400.30419922 C-144.7876934 448.16806924 -121.38424177 490.64290036 -81.14355469 518.89794922 C-48.65931875 540.78312073 -7.02445894 548.84376178 31.53930664 541.86499023 C33.72970973 541.41671372 35.90000971 540.91817462 38.07275391 540.39111328 C39.25272949 540.10905029 39.25272949 540.10905029 40.45654297 539.82128906 C73.72472802 531.54702935 103.27906606 511.58879404 124.07275391 484.39111328 C124.79849609 483.49263672 125.52423828 482.59416016 126.27197266 481.66845703 C162.90709419 435.18724699 168.71430499 369.16860979 162.07275391 312.39111328 C157.05375796 272.92623118 142.49695824 234.77084814 114.54101562 205.91064453 C113.01759862 204.33403205 111.51650284 202.73779682 110.01416016 201.14111328 C84.21669101 174.11993847 48.17523549 158.28500245 10.84619141 157.17236328 C-34.52761411 156.32259394 -73.70836032 171.35163172 -105.92724609 203.39111328 Z " fill="#4D5BA5" transform="translate(7291.92724609375,249.60888671875)"/>
<path d="M0 0 C1.87112961 -0.00855011 1.87112961 -0.00855011 3.78005981 -0.01727295 C6.41732957 -0.02667835 9.05461084 -0.03323908 11.69189453 -0.03710938 C15.62158953 -0.04356247 19.5508966 -0.07771283 23.48046875 -0.109375 C99.23746339 -0.42717035 173.53589773 21.10602105 228.6328125 74.765625 C232.54442751 78.77846479 236.09536101 83.04059969 239.5859375 87.421875 C240.99843716 89.18009136 242.4429885 90.91343688 243.9296875 92.609375 C285.44280963 140.48582242 296.05221866 207.85693387 295.94056702 269.07817078 C295.94100442 270.89710674 295.94188241 272.71604264 295.94315618 274.53497821 C295.94536802 279.47454656 295.94142585 284.41409278 295.93637812 289.35365832 C295.93202566 294.70238591 295.93352342 300.05111244 295.9342804 305.39984131 C295.93480261 314.64743529 295.93168752 323.89502217 295.92604256 333.14261436 C295.91788642 346.51278308 295.91530813 359.88294839 295.91405457 373.25311933 C295.91187049 394.94975402 295.90522792 416.64638493 295.89575195 438.34301758 C295.88656114 459.4087726 295.87948848 480.47452658 295.87524414 501.5402832 C295.87498142 502.84060852 295.87471869 504.14093385 295.87444801 505.48066296 C295.87314289 512.00456004 295.8718792 518.52845713 295.87063611 525.05235422 C295.86028357 579.1026145 295.84185611 633.15286779 295.8203125 687.203125 C248.6303125 687.203125 201.4403125 687.203125 152.8203125 687.203125 C152.4903125 660.473125 152.1603125 633.743125 151.8203125 606.203125 C149.1803125 609.833125 146.5403125 613.463125 143.8203125 617.203125 C142.3390525 618.96630968 140.82853334 620.70664536 139.2578125 622.390625 C136.64426258 625.21680271 134.09552987 628.05788906 131.6328125 631.015625 C110.66728774 654.84659734 82.35911817 672.17452892 52.8203125 683.203125 C52.11197266 683.4717334 51.40363281 683.7403418 50.67382812 684.01708984 C23.62138825 694.12123847 -6.07799326 699.28613633 -34.93359375 699.40625 C-36.0327562 699.41195007 -37.13191864 699.41765015 -38.26438904 699.42352295 C-40.58469703 699.4329167 -42.90501803 699.43948436 -45.2253418 699.44335938 C-48.68108222 699.45295532 -52.13619826 699.48398802 -55.59179688 699.515625 C-120.16977113 699.82359187 -182.7697926 679.1392276 -229.3046875 633.390625 C-235.53447003 627.13626336 -240.91806835 620.27676467 -246.1796875 613.203125 C-247.13294922 611.94242188 -247.13294922 611.94242188 -248.10546875 610.65625 C-265.43801303 586.90867209 -275.36483453 558.98876307 -280.1796875 530.203125 C-280.29296387 529.52749512 -280.40624023 528.85186523 -280.52294922 528.15576172 C-288.36159 479.32833582 -281.20199754 425.19463601 -252.1796875 384.203125 C-248.74635205 379.6569153 -245.00428906 375.42101643 -241.1796875 371.203125 C-240.40753906 370.31109375 -239.63539062 369.4190625 -238.83984375 368.5 C-188.75203545 311.10588575 -103.69727386 294.88634409 -31.27612305 289.78466797 C-11.28714382 288.50824008 8.79046605 287.83971577 28.8203125 288.203125 C30.41093506 288.22995361 30.41093506 288.22995361 32.03369141 288.25732422 C111.55054493 289.77986914 111.55054493 289.77986914 130.8203125 296.203125 C130.75247427 288.43305692 130.66236023 280.66345944 130.55786133 272.89379883 C130.52339331 270.25899922 130.49679829 267.62446598 130.47387695 264.98950195 C130.30684942 246.28597199 129.79186156 228.00423565 124.1328125 210.015625 C123.87862549 209.19449219 123.62443848 208.37335938 123.36254883 207.52734375 C115.41286189 182.93352029 99.07130923 162.25182552 75.99365234 150.25341797 C72.02301487 148.327241 67.9614305 146.72073703 63.8203125 145.203125 C62.79808594 144.82542969 61.77585938 144.44773437 60.72265625 144.05859375 C35.70448601 135.61377522 5.48425078 135.36858454 -20.1796875 141.203125 C-21.27724365 141.45255859 -21.27724365 141.45255859 -22.39697266 141.70703125 C-33.43078267 144.34167967 -43.29944972 148.68334722 -53.1796875 154.203125 C-54.16582031 154.74710938 -55.15195312 155.29109375 -56.16796875 155.8515625 C-83.6209828 172.1406157 -98.48093862 200.95720725 -106.1328125 230.9375 C-108.1494515 239.67626901 -109.05881209 248.23612176 -110.1796875 257.203125 C-162.6496875 257.203125 -215.1196875 257.203125 -269.1796875 257.203125 C-262.98534481 182.87101276 -237.38812345 115.78608545 -180.3671875 65.734375 C-177.67243754 63.50963957 -174.93755067 61.34899045 -172.1796875 59.203125 C-170.74109375 58.03910156 -170.74109375 58.03910156 -169.2734375 56.8515625 C-122.1317379 19.35248327 -59.91771134 0.21863807 0 0 Z M-99.08203125 432.796875 C-113.7808729 449.65811607 -117.98761049 471.47424878 -117.1796875 493.203125 C-115.68665717 513.63631148 -108.86620876 531.76121825 -95.1796875 547.203125 C-94.64988281 547.81542969 -94.12007812 548.42773438 -93.57421875 549.05859375 C-76.44559894 567.54058599 -49.18046546 576.27705498 -24.60620117 577.4921875 C-20.04646624 577.63694295 -15.49094428 577.62566788 -10.9296875 577.578125 C-9.72578369 577.57114594 -9.72578369 577.57114594 -8.49755859 577.56402588 C30.0759077 577.30300674 66.87256393 567.61992287 95.8203125 541.203125 C96.55765625 540.54828125 97.295 539.8934375 98.0546875 539.21875 C118.49068544 520.09065593 129.80310682 490.20250811 130.97201538 462.62393188 C131.17057049 453.64721076 131.11081611 444.67194203 131.02630615 435.6940918 C130.99511079 432.01942224 130.98180935 428.34468686 130.96679688 424.66992188 C130.93502929 417.51416705 130.88411993 410.3586721 130.8203125 403.203125 C119.6242389 401.11646104 108.4518588 399.39693211 97.1328125 398.140625 C96.38297089 398.05663452 95.63312927 397.97264404 94.86056519 397.8861084 C33.20935328 391.03048132 -51.84839444 384.14706213 -99.08203125 432.796875 Z " fill="#4D5BA5" transform="translate(5701.1796875,249.796875)"/>
<path d="M0 0 C3.84998371 0.00314363 7.69918368 -0.02033417 11.54907227 -0.0456543 C75.59176268 -0.20987025 143.92838002 14.95677967 194.44946289 56.31567383 C195.97893555 57.53963867 195.97893555 57.53963867 197.53930664 58.78833008 C211.74524299 70.32830851 224.79925665 83.41249313 235.44946289 98.31567383 C235.91626465 98.95988281 236.38306641 99.6040918 236.86401367 100.26782227 C275.34381277 153.87522494 282.99123721 216.4386263 282.79765975 280.55683625 C282.78451891 286.03354104 282.78910139 291.51023758 282.79136658 296.98695374 C282.79292809 306.44120168 282.78363755 315.89538677 282.76665306 325.34961891 C282.74211354 339.01829067 282.73444263 352.68693252 282.73068909 366.35562392 C282.72414785 388.54032233 282.70427649 410.72498769 282.67578125 432.90966797 C282.64815797 454.4405907 282.62694159 475.97150446 282.61425781 497.50244141 C282.61386323 498.1679642 282.61346866 498.83348699 282.61306212 499.51917713 C282.60871343 506.86694232 282.60453808 514.21470761 282.60043371 521.56247294 C282.56941042 576.81356956 282.51414688 632.06460435 282.44946289 687.31567383 C235.25946289 687.31567383 188.06946289 687.31567383 139.44946289 687.31567383 C139.11946289 660.91567383 138.78946289 634.51567383 138.44946289 607.31567383 C135.14946289 611.60567383 131.84946289 615.89567383 128.44946289 620.31567383 C125.06986218 624.23916605 121.54332932 628.00222044 117.9597168 631.73803711 C116.97439611 632.76731973 115.99461054 633.8019382 115.02124023 634.8425293 C76.43296262 676.08836482 17.23519162 697.34243825 -38.43232727 699.42340088 C-41.46292774 699.47899278 -44.49210772 699.50644635 -47.52319336 699.51879883 C-48.64455185 699.5244989 -49.76591034 699.53019897 -50.92124939 699.53607178 C-53.28863602 699.5454671 -55.6560354 699.55203383 -58.0234375 699.5559082 C-61.55160082 699.56550669 -65.07915327 699.596539 -68.60717773 699.62817383 C-89.16438479 699.72480597 -109.58093373 698.14669282 -129.67553711 693.62817383 C-130.8245752 693.37471191 -131.97361328 693.12125 -133.1574707 692.86010742 C-164.69893497 685.62670242 -195.10212942 672.46456357 -220.55053711 652.31567383 C-221.5340918 651.54352539 -222.51764648 650.77137695 -223.53100586 649.97583008 C-232.8981204 642.45835734 -241.93506741 634.63033555 -249.55053711 625.31567383 C-250.18596436 624.56471436 -250.18596436 624.56471436 -250.83422852 623.79858398 C-274.55308677 595.76720605 -287.61731531 563.34405992 -293.55053711 527.31567383 C-293.74969727 526.11539551 -293.74969727 526.11539551 -293.95288086 524.89086914 C-301.60053116 475.97598225 -292.43365434 422.98443084 -263.55053711 382.31567383 C-252.56728298 367.81531023 -239.35803141 354.84779585 -224.55053711 344.31567383 C-222.96692383 343.15551758 -222.96692383 343.15551758 -221.35131836 341.97192383 C-154.94003363 294.62654276 -62.4759569 287.00997347 16.44946289 288.31567383 C17.43462891 288.32824219 18.41979492 288.34081055 19.43481445 288.35375977 C37.17652558 288.62083929 54.82592596 289.83126745 72.51196289 291.19067383 C74.13029022 291.31230896 74.13029022 291.31230896 75.78131104 291.43640137 C90.10225836 292.52299273 104.25911946 294.09554916 118.44946289 296.31567383 C118.35551745 289.84572267 118.24804987 283.37608756 118.13208008 276.90649414 C118.09428701 274.71513698 118.05935767 272.52372815 118.02758789 270.33227539 C117.68901969 243.69414131 117.68901969 243.69414131 113.19946289 217.50317383 C112.98185303 216.634104 112.76424316 215.76503418 112.54003906 214.86962891 C105.89205628 189.29411515 91.46228679 166.94067993 68.44946289 153.31567383 C48.19754663 141.89942052 26.34164042 137.87857189 3.26196289 138.00317383 C2.53957428 138.00532898 1.81718567 138.00748413 1.07290649 138.00970459 C-10.35619768 138.06426029 -21.40998365 138.60420327 -32.55053711 141.31567383 C-33.74428955 141.59773682 -33.74428955 141.59773682 -34.9621582 141.88549805 C-52.20205059 146.10730688 -68.24716162 153.4029865 -81.55053711 165.31567383 C-82.42258789 165.97696289 -82.42258789 165.97696289 -83.31225586 166.65161133 C-110.62397213 187.66062384 -118.65517671 225.49583125 -123.55053711 257.31567383 C-175.69053711 257.31567383 -227.83053711 257.31567383 -281.55053711 257.31567383 C-281.55053711 215.56201571 -269.15770584 173.02265356 -249.55053711 136.31567383 C-249.19878418 135.65083984 -248.84703125 134.98600586 -248.48461914 134.30102539 C-234.69539637 108.4082736 -215.07686215 84.12113268 -192.55053711 65.31567383 C-192.02588867 64.87336426 -191.50124023 64.43105469 -190.96069336 63.9753418 C-176.32315547 51.69856328 -160.48808323 41.14847663 -143.55053711 32.31567383 C-142.74116699 31.88931641 -141.93179688 31.46295898 -141.09790039 31.02368164 C-114.83340285 17.35256038 -86.58812362 9.14543012 -57.48803711 4.12817383 C-56.59165527 3.97300293 -55.69527344 3.81783203 -54.77172852 3.65795898 C-51.70309593 3.15947606 -48.63235813 2.72537551 -45.55053711 2.31567383 C-44.89022491 2.22740326 -44.22991272 2.13913269 -43.54959106 2.04818726 C-29.05063712 0.18019876 -14.60415611 -0.02480731 0 0 Z M-111.16186523 431.75463867 C-128.21331957 450.92253583 -130.941005 474.72252877 -129.55053711 499.31567383 C-127.53565936 520.90303065 -116.5885264 541.53756985 -99.95385742 555.37719727 C-77.99947522 572.64150887 -50.56164228 577.97168121 -23.23803711 577.69067383 C-22.43448792 577.68635345 -21.63093872 577.68203308 -20.80303955 577.67758179 C-8.20235823 577.59842354 4.1024325 577.0274048 16.44946289 574.31567383 C17.25963867 574.13875 18.06981445 573.96182617 18.90454102 573.77954102 C51.24064557 566.46030547 81.77188875 549.62196723 100.08374023 521.1418457 C106.52686882 510.56040323 111.21260473 499.36183693 114.32446289 487.37817383 C114.51564697 486.653479 114.70683105 485.92878418 114.90380859 485.18212891 C119.21971114 466.97619048 118.70243513 448.19984302 118.57446289 429.62817383 C118.56440561 427.06502631 118.55528465 424.50187494 118.54711914 421.9387207 C118.52534065 415.73095271 118.49208403 409.52333193 118.44946289 403.31567383 C107.27415447 401.2343401 96.12199415 399.51037056 84.82446289 398.25317383 C84.07656494 398.16918335 83.32866699 398.08519287 82.55810547 397.99865723 C21.88414226 391.23970683 -64.60134603 383.56734421 -111.16186523 431.75463867 Z " fill="#000000" transform="translate(1092.550537109375,249.684326171875)"/>
<path d="M0 0 C3.13488079 0.00314528 6.26880034 -0.02034422 9.40356445 -0.0456543 C56.30609647 -0.19277123 102.954314 12.4753756 141.10083008 40.31567383 C141.97312256 40.92983154 141.97312256 40.92983154 142.86303711 41.55639648 C160.66247693 54.11796684 177.12851483 71.14067077 189.10083008 89.31567383 C189.55425781 89.99452637 190.00768555 90.67337891 190.47485352 91.37280273 C214.43451434 127.64669259 225.83512374 169.40296569 230.10083008 212.31567383 C230.18912045 213.13649028 230.27741083 213.95730672 230.36837667 214.8029964 C231.29262552 224.31332869 231.23728616 233.79202231 231.22108459 243.33599854 C231.22152121 245.25613791 231.22239777 247.17627723 231.22367376 249.09641623 C231.22590102 254.34824039 231.22192173 259.60004399 231.2168957 264.85186553 C231.21256591 270.52450924 231.21403942 276.19715185 231.21479797 281.86979675 C231.21532161 291.68991621 231.21219158 301.51002901 231.20656013 311.33014679 C231.19842339 325.5282838 231.19582768 339.72641761 231.19457214 353.9245567 C231.19238505 376.96166935 231.18574284 399.99877801 231.17626953 423.03588867 C231.16707928 445.41056296 231.15999852 467.78523631 231.15576172 490.15991211 C231.15556443 491.19516647 231.15556443 491.19516647 231.15536315 492.25133506 C231.15404459 499.18255378 231.15276878 506.11377251 231.1515243 513.04499124 C231.14109031 571.1352217 231.1226171 629.22544627 231.10083008 687.31567383 C173.68083008 687.31567383 116.26083008 687.31567383 57.10083008 687.31567383 C57.0518457 659.46418945 57.00286133 631.61270508 56.95239258 602.91723633 C56.91700305 585.26228544 56.88113296 567.60733748 56.84301758 549.95239258 C56.82301216 540.67423534 56.80312813 531.39607785 56.78344727 522.11791992 C56.78097583 520.95519275 56.77850439 519.79246557 56.77595806 518.59450424 C56.73633242 499.86885637 56.70354895 481.14320254 56.67333026 462.41753741 C56.64212099 443.17328288 56.60347175 423.92905346 56.55804002 404.68482721 C56.53027916 392.82797996 56.50819294 380.97115088 56.49356757 369.11428003 C56.48295481 360.96299633 56.46505919 352.811748 56.44166304 344.66049106 C56.42841045 339.97079318 56.41815081 335.28114445 56.41661644 330.59142685 C56.39584109 283.44715156 56.25492496 227.84988287 23.10083008 190.31567383 C21.94260742 188.86354492 21.94260742 188.86354492 20.76098633 187.38208008 C5.93685112 169.59704698 -19.620091 159.9898216 -42.02807617 157.54272461 C-58.58818382 156.23312426 -75.75018399 156.06684972 -91.89916992 160.31567383 C-93.72254883 160.79133789 -93.72254883 160.79133789 -95.58276367 161.27661133 C-126.04625907 170.36730519 -150.89784326 192.28707009 -166.32763672 219.78833008 C-183.69954133 252.29515034 -188.03463466 288.308499 -188.05738831 324.62805176 C-188.06196842 326.20516122 -188.06697049 327.7822695 -188.07235187 329.35937643 C-188.08577758 333.64442073 -188.09330544 337.92945721 -188.09977853 342.21451688 C-188.10785194 346.85368834 -188.12152531 351.49284389 -188.13449097 356.13200378 C-188.15615622 364.15353389 -188.1743366 372.17506569 -188.1900959 380.1966095 C-188.21288585 391.79416953 -188.24101558 403.39171187 -188.27041518 414.9892568 C-188.31797982 433.80915489 -188.36127386 452.62906026 -188.40185547 471.44897461 C-188.44126722 489.72209234 -188.48271789 507.9952036 -188.52685547 526.26831055 C-188.52960497 527.40765623 -188.53235448 528.54700192 -188.5351873 529.72087324 C-188.55670864 538.63236449 -188.57834756 547.54385546 -188.60002363 556.45534635 C-188.70609387 600.07544241 -188.80191444 643.6955555 -188.89916992 687.31567383 C-246.97916992 687.31567383 -305.05916992 687.31567383 -364.89916992 687.31567383 C-364.89916992 464.56567383 -364.89916992 241.81567383 -364.89916992 12.31567383 C-311.43916992 12.31567383 -257.97916992 12.31567383 -202.89916992 12.31567383 C-202.56916992 43.00567383 -202.23916992 73.69567383 -201.89916992 105.31567383 C-194.96916992 96.90067383 -194.96916992 96.90067383 -187.89916992 88.31567383 C-184.29323246 84.23753027 -180.6716959 80.23265094 -176.89916992 76.31567383 C-175.90892822 75.28458496 -175.90892822 75.28458496 -174.89868164 74.23266602 C-165.95954496 64.97676474 -156.97256263 56.12334761 -146.56274414 48.53051758 C-144.89135623 47.3099678 -143.24079489 46.06464573 -141.59057617 44.81567383 C-111.33659311 22.23196271 -75.16388994 7.85901982 -37.89916992 2.31567383 C-36.690271 2.13238525 -35.48137207 1.94909668 -34.23583984 1.76025391 C-22.83836541 0.16088342 -11.49579722 -0.02398845 0 0 Z " fill="#4D5BA5" transform="translate(8111.899169921875,249.684326171875)"/>
<path d="M0 0 C3.13488079 0.00314528 6.26880034 -0.02034422 9.40356445 -0.0456543 C28.26288901 -0.10565058 46.99427364 1.58996547 65.35083008 6.06567383 C66.43033936 6.32461426 67.50984863 6.58355469 68.62207031 6.8503418 C98.82601 14.3203974 127.45884813 27.90714234 151.10083008 48.31567383 C151.85750977 48.9627832 152.61418945 49.60989258 153.39379883 50.27661133 C156.01212715 52.57458953 158.56297354 54.92896387 161.10083008 57.31567383 C161.65931641 57.84016113 162.21780273 58.36464844 162.79321289 58.9050293 C208.30483912 102.00520035 228.37140448 164.79604703 231.10083008 226.31567383 C231.26967201 232.70912352 231.2320261 239.10548021 231.22108459 245.50057983 C231.22152141 247.41419572 231.22239834 249.32781155 231.22367376 251.24142706 C231.2258971 256.46592942 231.2219272 261.69041107 231.2168957 266.91491079 C231.21256019 272.56161591 231.21403982 278.20831994 231.21479797 283.85502625 C231.21532125 293.62709198 231.21219499 303.39915101 231.20656013 313.17121506 C231.19841849 327.2998219 231.19582718 341.42842551 231.19457214 355.55703445 C231.19238581 378.48211691 231.1857457 401.40719502 231.17626953 424.33227539 C231.16707728 446.5962726 231.1599975 468.86026885 231.15576172 491.12426758 C231.15556443 492.15464519 231.15556443 492.15464519 231.15536315 493.20583851 C231.15404457 500.1044912 231.15276877 507.00314388 231.1515243 513.90179658 C231.1410927 571.70642539 231.12262088 629.51104795 231.10083008 687.31567383 C173.68083008 687.31567383 116.26083008 687.31567383 57.10083008 687.31567383 C57.0518457 659.63176758 57.00286133 631.94786133 56.95239258 603.42504883 C56.91700067 585.87035835 56.88112899 568.31567081 56.84301758 550.76098633 C56.82301251 541.53474966 56.80312855 532.30851275 56.78344727 523.08227539 C56.78097583 521.92607358 56.77850439 520.76987177 56.77595806 519.57863355 C56.73634514 500.96424808 56.7035561 482.34985662 56.67333026 463.73545381 C56.64210798 444.60193079 56.60345341 425.46843294 56.55804002 406.33493829 C56.53029545 394.54872863 56.50820235 382.76253719 56.49356757 370.97630385 C56.48294513 362.87079292 56.46503979 354.76531747 56.44166304 346.6598334 C56.42842582 341.99824145 56.41815329 337.33669872 56.41661644 332.67508698 C56.39321055 280.25576074 55.1522406 224.05671573 16.97583008 183.75317383 C-3.38362947 163.8711085 -31.87495779 156.88014496 -59.64916992 157.00317383 C-61.62542358 157.01054565 -61.62542358 157.01054565 -63.64160156 157.01806641 C-73.3840553 157.13505504 -82.47920006 157.83726465 -91.89916992 160.31567383 C-93.72254883 160.79133789 -93.72254883 160.79133789 -95.58276367 161.27661133 C-110.23208413 165.64815458 -124.56545193 173.01413372 -135.89916992 183.31567383 C-136.72416992 184.02336914 -137.54916992 184.73106445 -138.39916992 185.46020508 C-171.05390386 213.8837616 -184.4435187 256.10019346 -187.43615627 298.23642063 C-187.95839742 306.35294803 -188.05233263 314.45283893 -188.05738831 322.58372498 C-188.06196709 324.16822098 -188.06696898 325.75271581 -188.07235187 327.33720928 C-188.0857927 331.64731608 -188.09330998 335.9574151 -188.09977853 340.26753724 C-188.10784509 344.93194802 -188.12152092 349.59634293 -188.13449097 354.26074219 C-188.15616574 362.32758011 -188.17434274 370.39441971 -188.1900959 378.46127129 C-188.21287704 390.12436546 -188.24100808 401.78744199 -188.27041518 413.45052112 C-188.3179905 432.37634871 -188.3612817 451.30218355 -188.40185547 470.22802734 C-188.44126175 488.6049862 -188.48271117 506.98193861 -188.52685547 525.35888672 C-188.52960497 526.50453541 -188.53235448 527.6501841 -188.5351873 528.83054942 C-188.55670839 537.79121945 -188.57834739 546.7518892 -188.60002363 555.71255887 C-188.70611127 599.58025079 -188.80192061 643.4479597 -188.89916992 687.31567383 C-246.97916992 687.31567383 -305.05916992 687.31567383 -364.89916992 687.31567383 C-364.89916992 464.56567383 -364.89916992 241.81567383 -364.89916992 12.31567383 C-311.43916992 12.31567383 -257.97916992 12.31567383 -202.89916992 12.31567383 C-202.56916992 43.00567383 -202.23916992 73.69567383 -201.89916992 105.31567383 C-197.60916992 100.03567383 -193.31916992 94.75567383 -188.89916992 89.31567383 C-183.02416992 82.81567383 -183.02416992 82.81567383 -180.32495117 79.92895508 C-178.22372183 77.66531187 -176.20736465 75.3592649 -174.21166992 73.00317383 C-171.38120851 69.74344812 -168.32972049 66.92943946 -165.03588867 64.14379883 C-162.76261371 62.19883963 -160.58841343 60.16706728 -158.39916992 58.12817383 C-125.06426577 28.15734257 -82.0861416 8.92638062 -37.89916992 2.31567383 C-36.71701904 2.13689697 -35.53486816 1.95812012 -34.31689453 1.77392578 C-22.88933899 0.17539533 -11.52593263 -0.02405133 0 0 Z " fill="#000000" transform="translate(2940.899169921875,249.684326171875)"/>
<path d="M0 0 C1.77480492 -0.00855011 1.77480492 -0.00855011 3.58546448 -0.01727295 C6.0856946 -0.02667389 8.58593684 -0.03323728 11.08618164 -0.03710938 C14.80964537 -0.04669666 18.53252753 -0.07771864 22.25585938 -0.109375 C71.13265957 -0.32560192 119.36445649 9.92606432 163.44140625 31.203125 C164.27752441 31.6048291 165.11364258 32.0065332 165.97509766 32.42041016 C185.58871194 41.96227003 204.13931782 53.93846134 220.89648438 67.91845703 C222.43335418 69.19642936 223.99208811 70.44795629 225.55078125 71.69921875 C233.75231628 78.3928538 241.25571967 85.80677908 248.75390625 93.265625 C249.52199615 94.02581436 249.52199615 94.02581436 250.30560303 94.80136108 C257.153844 101.59508965 263.46794106 108.61125227 269.44140625 116.203125 C269.91698975 116.79375732 270.39257324 117.38438965 270.88256836 117.99291992 C305.51667271 161.03083616 326.67577638 212.84538799 337.25390625 266.703125 C337.40138306 267.44999573 337.54885986 268.19686646 337.70080566 268.96636963 C338.12951294 271.15831233 338.54731299 273.35204017 338.9609375 275.546875 C339.19917236 276.80693359 339.43740723 278.06699219 339.68286133 279.36523438 C340.81938503 286.61381939 341.58412528 293.91623677 342.44140625 301.203125 C281.39140625 301.203125 220.34140625 301.203125 157.44140625 301.203125 C155.79140625 291.303125 154.14140625 281.403125 152.44140625 271.203125 C145.33285522 243.58913831 134.86454831 219.29340335 115.44140625 198.203125 C114.98040527 197.69297852 114.5194043 197.18283203 114.04443359 196.65722656 C93.34667856 173.95088939 63.03973939 159.65986073 32.44140625 157.203125 C-6.68057706 155.5529936 -43.45234472 161.79248809 -73.46777344 188.92919922 C-104.71241943 217.75008219 -120.4473924 256.9737008 -127.55859375 298.203125 C-127.72520508 299.15928711 -127.89181641 300.11544922 -128.06347656 301.10058594 C-133.37051115 333.459213 -133.19431301 369.90947259 -127.55859375 402.203125 C-127.38166992 403.2235791 -127.20474609 404.2440332 -127.02246094 405.29541016 C-123.32348338 425.87616355 -117.75294044 445.39770311 -108.55859375 464.203125 C-108.07519531 465.19868408 -108.07519531 465.19868408 -107.58203125 466.21435547 C-95.29679963 491.19058094 -76.97516358 512.57392331 -52.55859375 526.203125 C-50.96144531 527.11191406 -50.96144531 527.11191406 -49.33203125 528.0390625 C-39.52429772 533.29894769 -29.31555596 536.48326996 -18.55859375 539.203125 C-17.85879395 539.38391602 -17.15899414 539.56470703 -16.43798828 539.75097656 C4.6061999 544.91828272 30.45744925 544.20121309 51.44140625 539.203125 C52.12944336 539.0474707 52.81748047 538.89181641 53.52636719 538.73144531 C70.24714987 534.82603173 87.31155049 527.3788718 100.44140625 516.203125 C101.27414062 515.49542969 102.106875 514.78773438 102.96484375 514.05859375 C105.50886742 511.82376681 107.97968895 509.52808023 110.44140625 507.203125 C111.25351563 506.46707031 112.065625 505.73101563 112.90234375 504.97265625 C129.89342513 488.97316795 140.28980424 467.08702715 147.44140625 445.203125 C147.67311523 444.50203613 147.90482422 443.80094727 148.14355469 443.07861328 C152.89406598 428.37016533 154.79651853 413.54347377 157.44140625 398.203125 C218.49140625 398.203125 279.54140625 398.203125 342.44140625 398.203125 C338.93449678 427.42737056 338.93449678 427.42737056 337.19140625 436.078125 C336.98088623 437.13797607 336.77036621 438.19782715 336.5534668 439.28979492 C330.49494745 468.96760128 321.66472703 497.90919677 308.44140625 525.203125 C307.86205322 526.42902344 307.86205322 526.42902344 307.27099609 527.6796875 C296.96663579 549.47785943 283.85196131 569.66011591 268.44140625 588.203125 C267.61769531 589.21246094 266.79398438 590.22179687 265.9453125 591.26171875 C254.1660368 605.49370001 241.08336089 618.91573922 226.44140625 630.203125 C225.30567539 631.1357804 224.17307667 632.07225785 223.04296875 633.01171875 C170.38243421 676.54956948 99.60082216 699.14191174 31.6875 699.40625 C30.50712662 699.41195007 29.32675323 699.41765015 28.11061096 699.42352295 C25.62233353 699.43290661 23.13404405 699.43948026 20.64575195 699.44335938 C16.94002978 699.45296654 13.23488718 699.4840145 9.52929688 699.515625 C-12.54946774 699.61430361 -34.4546982 697.89855691 -56.12109375 693.515625 C-58.03849365 693.13325684 -58.03849365 693.13325684 -59.99462891 692.74316406 C-82.01921893 688.24133378 -102.9397797 681.08195182 -123.55859375 672.203125 C-124.34379395 671.86845215 -125.12899414 671.5337793 -125.93798828 671.18896484 C-149.38573617 661.08010099 -171.15329859 646.72422766 -190.55859375 630.203125 C-191.59546979 629.35048589 -192.63327683 628.49897805 -193.671875 627.6484375 C-200.97354628 621.60434757 -207.7907103 615.15202104 -214.49609375 608.453125 C-215.28886719 607.66115723 -216.08164063 606.86918945 -216.8984375 606.05322266 C-283.88267715 538.43251958 -311.86387733 443.76540651 -311.74609375 350.328125 C-311.7454895 349.43371704 -311.74488525 348.53930908 -311.7442627 347.61779785 C-311.57498459 254.75017836 -282.45725721 168.19910788 -219.55859375 99.203125 C-218.29789063 97.78580078 -218.29789063 97.78580078 -217.01171875 96.33984375 C-210.27938797 88.80751023 -203.11941019 81.8992676 -195.55859375 75.203125 C-194.78974854 74.51718262 -194.78974854 74.51718262 -194.00537109 73.81738281 C-141.62435553 27.34198798 -69.94386511 0.26969205 0 0 Z " fill="#000000" transform="translate(1792.55859375,249.796875)"/>
<path d="M0 0 C57.75 0 115.5 0 175 0 C175 65.67 175 131.34 175 199 C238.36 199 301.72 199 367 199 C367 248.83 367 298.66 367 350 C303.64 350 240.28 350 175 350 C175.09063232 399.22855785 175.09063232 399.22855785 175.20898438 448.45703125 C175.22703148 455.1114903 175.24489499 461.7659498 175.26245117 468.42041016 C175.2657627 469.67125914 175.2657627 469.67125914 175.26914114 470.9473778 C175.30440318 484.36762646 175.32932227 497.78787507 175.35034702 511.20815273 C175.37219589 525.00574712 175.40533147 538.80328199 175.44870156 552.60082567 C175.47506273 561.09808257 175.49287207 569.59526547 175.49934604 578.09256117 C175.50464793 583.93859206 175.52102303 589.78453024 175.54566566 595.63051124 C175.55951875 598.99121395 175.56725733 602.3516129 175.56500816 605.7123642 C175.5496652 639.24785876 178.57505514 673.05774763 202 699 C220.90253484 717.67131118 246.93982617 723.22636778 272.6875 723.375 C301.50979967 723.16840364 329.64634603 717.63435791 355.33984375 704.26171875 C358 703 358 703 361 703 C361 753.49 361 803.98 361 856 C342.23400455 865.38299773 342.23400455 865.38299773 333.375 868.625 C331.85459106 869.18610474 331.85459106 869.18610474 330.3034668 869.75854492 C313.27877809 875.91123436 295.85437324 880.11382721 278 883 C277.13810059 883.15098145 276.27620117 883.30196289 275.38818359 883.45751953 C243.17815291 888.94322566 206.13564977 888.97523141 174 883 C173.03046387 882.82307617 172.06092773 882.64615234 171.06201172 882.46386719 C137.56165128 876.15701995 106.56689605 864.18930264 79 844 C78.08089844 843.32839844 77.16179687 842.65679688 76.21484375 841.96484375 C60.43839899 829.69969427 46.80119216 814.77106051 36 798 C35.54302734 797.29133789 35.08605469 796.58267578 34.61523438 795.85253906 C19.16782899 771.51896343 10.21884883 744.21986998 5 716 C4.84692383 715.19771973 4.69384766 714.39543945 4.53613281 713.56884766 C-0.34594777 687.38663348 -0.30966194 660.28557126 -0.23213124 633.73940134 C-0.22327128 629.90898151 -0.22643233 626.07856566 -0.22793579 622.24813843 C-0.22897081 615.65378157 -0.22284185 609.05946511 -0.21146011 602.46511841 C-0.19501619 592.93149399 -0.18997811 583.39788856 -0.18748413 573.86425149 C-0.18313617 558.38637802 -0.16990697 542.90852595 -0.15087891 527.43066406 C-0.13244421 512.41959742 -0.11832516 497.40853665 -0.10986328 482.39746094 C-0.10933783 481.46795148 -0.10881239 480.53844202 -0.10827102 479.5807656 C-0.10566043 474.91642757 -0.10313314 470.25208949 -0.10064721 465.58775139 C-0.08000526 427.05848189 -0.04318529 388.52925211 0 350 C-44.55 350 -89.1 350 -135 350 C-135 300.17 -135 250.34 -135 199 C-90.45 199 -45.9 199 0 199 C0 133.33 0 67.66 0 0 Z " fill="#4D5BA5" transform="translate(6194,63)"/>
<path d="M0 0 C57.42 0 114.84 0 174 0 C174 65.67 174 131.34 174 199 C237.69 199 301.38 199 367 199 C367 248.83 367 298.66 367 350 C303.31 350 239.62 350 174 350 C174.11981445 397.60452251 174.11981445 397.60452251 174.2578125 445.20898438 C174.27781674 451.64607702 174.29770057 458.08317003 174.31738281 464.52026367 C174.31985425 465.32690883 174.32232569 466.13355399 174.32487202 466.96464294 C174.36445548 479.94133461 174.39725738 492.91803484 174.42749982 505.89475126 C174.45875228 519.23920422 174.4974191 532.58362128 174.54279006 545.92803377 C174.57049696 554.14428178 174.59260586 562.36050391 174.60726251 570.57678574 C174.61790743 576.23171399 174.63583507 581.88659176 174.65916704 587.54148174 C174.67236883 590.79085146 174.68158037 594.04013977 174.68421364 597.28953743 C174.71836357 633.06683485 175.715331 672.12873327 202.25390625 699.3125 C222.23939366 718.87155453 249.4901487 723.51836463 276.44506836 723.28295898 C303.91015465 722.75249576 331.5047842 716.97933464 355.87988281 703.953125 C358 703 358 703 361 703 C361 753.49 361 803.98 361 856 C342.26552013 865.36723993 342.26552013 865.36723993 333.125 868.5625 C332.07328613 868.9339917 331.02157227 869.3054834 329.93798828 869.68823242 C310.75925718 876.3182854 291.12721347 881.32301925 271 884 C270.36795654 884.08613556 269.73591309 884.17227112 269.0847168 884.26101685 C255.82592662 886.01851692 242.65978671 886.34146915 229.29589844 886.31567383 C225.90006056 886.31252325 222.50510555 886.33604181 219.109375 886.36132812 C159.34651653 886.53502124 102.61944078 868.45811714 59 827 C58.36835938 826.42121094 57.73671875 825.84242188 57.0859375 825.24609375 C26.13391889 795.9810335 10.82946924 752.74071808 3.75 711.875 C3.52304443 710.57344971 3.52304443 710.57344971 3.29150391 709.24560547 C0.01041591 688.81388121 -0.28892408 668.35355319 -0.23213124 647.7164557 C-0.2233645 643.70726222 -0.22642609 639.69807368 -0.22793579 635.68887329 C-0.22897642 628.76912495 -0.22278677 621.84941479 -0.21146011 614.92967606 C-0.19509518 604.92532444 -0.18998596 594.92099099 -0.18748413 584.91662745 C-0.18312412 568.67894564 -0.16986138 552.44128411 -0.15087891 536.20361328 C-0.13247599 520.44515076 -0.11834117 504.68669378 -0.10986328 488.92822266 C-0.10933783 487.95426802 -0.10881239 486.98031339 -0.10827102 485.97684498 C-0.10566064 481.0900236 -0.1031333 476.20320218 -0.10064721 471.31638074 C-0.07996755 430.87756914 -0.04312658 390.43879511 0 350 C-44.88 350 -89.76 350 -136 350 C-136 300.17 -136 250.34 -136 199 C-91.12 199 -46.24 199 0 199 C0 133.33 0 67.66 0 0 Z " fill="#4D5BA5" transform="translate(4981,63)"/>
<path d="M0 0 C58.08 0 116.16 0 176 0 C176 222.75 176 445.5 176 675 C117.92 675 59.84 675 0 675 C0 452.25 0 229.5 0 0 Z " fill="#4D5BA5" transform="translate(6667,262)"/>
<path d="M0 0 C57.75 0 115.5 0 175 0 C175 222.75 175 445.5 175 675 C117.25 675 59.5 675 0 675 C0 452.25 0 229.5 0 0 Z " fill="#000000" transform="translate(2246,262)"/>
<path d="M0 0 C0.99193359 0.24943359 0.99193359 0.24943359 2.00390625 0.50390625 C22.31233633 5.78644587 38.76865996 15.63081128 54 30 C54.95712891 30.87785156 54.95712891 30.87785156 55.93359375 31.7734375 C74.50743719 49.39583685 81.78137743 75.21874536 83.2890625 100.01953125 C83.86653608 124.24717281 76.88558163 148.43895199 61 167 C60.35675781 167.78761719 59.71351562 168.57523438 59.05078125 169.38671875 C39.9060877 191.92862224 11.60672036 203.77141094 -17.38427734 206.80371094 C-52.32011599 209.42536618 -87.26787739 204.06673318 -114.609375 180.77734375 C-117.11742125 178.5619029 -119.56351485 176.29364264 -122 174 C-122.67675781 173.39929688 -123.35351562 172.79859375 -124.05078125 172.1796875 C-140.74407472 156.7241733 -149.91678088 133.12787125 -151.12426758 110.69091797 C-152.10839375 80.32620754 -144.53240379 54.95122702 -124.6015625 31.75 C-120.42756464 27.3378461 -115.85879332 23.62827403 -111 20 C-110.22269531 19.39671875 -109.44539063 18.7934375 -108.64453125 18.171875 C-96.81387959 9.37319939 -83.24569044 3.55367477 -69 0 C-67.73027344 -0.3196875 -66.46054687 -0.639375 -65.15234375 -0.96875 C-44.8520029 -5.42196728 -20.11906373 -5.07065834 0 0 Z " fill="#4D5BA5" transform="translate(6788,3)"/>
<path d="M0 0 C1.04707123 0.00323273 1.04707123 0.00323273 2.11529541 0.00653076 C31.20587442 0.15012851 58.61779278 7.38441783 81.3125 26.3125 C82.71435547 27.46878906 82.71435547 27.46878906 84.14453125 28.6484375 C103.43214535 45.31941024 114.22174171 68.16356878 117.3125 93.3125 C117.5904249 97.56739784 117.64732675 101.79936698 117.625 106.0625 C117.61936035 107.19993652 117.6137207 108.33737305 117.60791016 109.50927734 C117.19685389 138.14891069 105.72494045 161.71022291 85.28125 181.6484375 C57.76082232 206.34440023 21.96561997 211.62645994 -13.6875 210.3125 C-37.65959689 208.78056962 -61.44980458 200.13688979 -79.6875 184.3125 C-80.48285156 183.64863281 -81.27820312 182.98476562 -82.09765625 182.30078125 C-101.96401265 165.19790564 -113.93996796 142.56338552 -116.34790039 116.34228516 C-118.3189244 89.22884086 -112.03278487 61.13729532 -94.046875 40.1796875 C-78.89439444 23.04301712 -60.67232175 10.76826377 -38.625 4.5 C-37.94211914 4.3050293 -37.25923828 4.11005859 -36.55566406 3.90917969 C-24.5322614 0.72502775 -12.3915928 -0.06929302 0 0 Z " fill="#000000" transform="translate(2331.6875,-0.3125)"/>
</svg>
